<svg width="37" height="37" viewBox="0 0 37 37" fill="none" xmlns="http://www.w3.org/2000/svg">
<g clip-path="url(#clip0_42_1029)">
<path d="M36.9995 18.8647C36.9995 18.8578 36.9992 18.8509 36.9991 18.844C36.9889 18.3803 36.6166 18.0108 36.1473 18.0108H35.9236L32.4696 11.3329C32.3239 11.0509 32.0332 10.8753 31.7124 10.8753L25.8154 10.874L26.0404 9.09075C26.1046 8.3781 25.8842 7.70521 25.4198 7.1959C24.9563 6.68765 24.3092 6.40768 23.5975 6.40768H5.29532C4.83514 6.40768 4.44423 6.76375 4.40036 7.22279L4.2169 8.69204H14.6446C15.3217 8.69204 15.8562 9.24093 15.8385 9.91803C15.8207 10.5951 15.2575 11.144 14.5804 11.144H11.1022C11.1028 11.1458 11.1034 11.1475 11.104 11.1492H0.890016C0.411182 11.1492 0.0128249 11.5373 0.000302403 12.0161C-0.0122201 12.495 0.365733 12.8831 0.844567 12.8831H14.3668C14.9945 12.9797 15.4635 13.5226 15.4462 14.1798C15.4273 14.9016 14.8298 15.4868 14.1093 15.4928H4.78672C4.30307 15.4928 3.90077 15.8849 3.88807 16.3685C3.87537 16.8522 4.25718 17.2442 4.74083 17.2442H13.9536C14.5905 17.3329 15.0688 17.8802 15.0514 18.5438C15.0324 19.2692 14.4289 19.8573 13.7035 19.8573H3.13435V19.8583H2.2463C1.76265 19.8583 1.36036 20.2504 1.34766 20.734C1.33496 21.2177 1.71668 21.6097 2.20042 21.6097H2.96683L2.66708 24.7463C2.6028 25.4589 2.82313 26.1317 3.2876 26.6411C3.75102 27.1494 4.39825 27.4293 5.10994 27.4293H5.77109C6.08617 29.2309 7.64492 30.5922 9.55159 30.5922C11.4583 30.5922 13.0883 29.2309 13.4975 27.4294H21.7483C22.4154 27.4294 23.047 27.1743 23.5422 26.7566C23.9952 27.1913 24.5955 27.4294 25.2511 27.4294H25.3868C25.7018 29.2309 27.2606 30.5922 29.1673 30.5922C31.074 30.5922 32.704 29.2309 33.1132 27.4294H33.6578C35.0766 27.4294 36.3348 26.276 36.4626 24.8583L36.9963 18.9468C36.997 18.9388 36.9966 18.9309 36.9972 18.9229C36.998 18.9107 36.9997 18.8988 37 18.8865C37.0002 18.8792 36.9995 18.8721 36.9995 18.8647ZM9.59747 28.8408C8.39032 28.8408 7.43388 27.8588 7.46549 26.6516C7.4971 25.4444 8.50495 24.4623 9.7121 24.4623C10.9193 24.4623 11.8756 25.4444 11.844 26.6516C11.8124 27.8588 10.8046 28.8408 9.59747 28.8408ZM29.2132 28.8408C28.0061 28.8408 27.0497 27.8588 27.0812 26.6516C27.1128 25.4444 28.1207 24.4623 29.3278 24.4623C30.535 24.4623 31.4914 25.4444 31.4597 26.6516C31.4281 27.8588 30.4204 28.8408 29.2132 28.8408ZM34.7179 24.7463C34.6723 25.2513 34.208 25.678 33.7038 25.678H33.1147C32.7247 23.9744 31.2106 22.7109 29.3736 22.7109C27.5367 22.7109 25.9565 23.9744 25.4773 25.678H25.297C25.0744 25.678 24.8758 25.5945 24.7375 25.4428C24.5983 25.2903 24.5328 25.0827 24.5531 24.8582L25.6572 12.6254L28.1932 12.626L27.7912 17.0791C27.7269 17.7916 27.9471 18.4645 28.4115 18.9738C28.8749 19.4823 29.5223 19.7623 30.2341 19.7623H35.1676L34.7179 24.7463Z" fill="black"/>
</g>
<defs>
<clipPath id="clip0_42_1029">
<rect width="37" height="37" fill="white"/>
</clipPath>
</defs>
</svg>
