<svg width="108" height="108" viewBox="0 0 108 108" fill="none" xmlns="http://www.w3.org/2000/svg">
<circle cx="54" cy="54" r="54" fill="#E2F6DF"/>
<path d="M108 54C108 83.8234 83.8234 108 54 108C24.1766 108 0 83.8234 0 54C0 24.1766 24.1766 54 54 54C83.8234 54 108 24.1766 108 54Z" fill="#B2FEA6"/>
<path fill-rule="evenodd" clip-rule="evenodd" d="M53 68.001C48.581 68.001 45 71.582 45 76.001C45 80.419 48.581 84.001 53 84.001C57.418 84.001 61 80.419 61 76.001C61 71.583 57.418 68.001 53 68.001ZM57.555 79.906C55.399 82.422 51.612 82.713 49.096 80.556C46.579 78.4 46.289 74.612 48.446 72.097C50.601 69.58 54.389 69.29 56.905 71.447C59.42 73.602 59.711 77.391 57.555 79.906Z" fill="#0B4D01"/>
<path fill-rule="evenodd" clip-rule="evenodd" d="M53 72.001C50.791 72.001 49.001 73.792 49 76V76.002C49 76.277 49.224 76.502 49.5 76.502C49.776 76.502 50 76.277 50 76.002V76C50.001 74.344 51.343 73.001 53 73.001C53.276 73.001 53.5 72.777 53.5 72.501C53.5 72.225 53.276 72.001 53 72.001Z" fill="#0B4D01"/>
<path fill-rule="evenodd" clip-rule="evenodd" d="M66.492 67.042L62.158 66.319L60.785 62.885C60.326 61.74 59.232 61 58 61H48C46.768 61 45.674 61.74 45.214 62.886L43.842 66.319L39.509 67.042C38.055 67.283 37 68.527 37 70V85C37 86.654 38.346 88 40 88H66C67.654 88 69 86.654 69 85V70C69 68.527 67.945 67.283 66.492 67.042ZM67 85C67 85.553 66.553 86 66 86H40C39.447 86 39 85.553 39 85V70C39 69.511 39.354 69.094 39.836 69.014L45.28 68.107L47.071 63.629C47.224 63.25 47.591 63 48 63H58C58.408 63 58.775 63.249 58.928 63.629L60.719 68.107L66.164 69.014C66.646 69.094 67 69.511 67 70V85Z" fill="#0B4D01"/>
</svg>
