<svg width="38" height="33" viewBox="0 0 38 33" fill="none" xmlns="http://www.w3.org/2000/svg">
<path d="M13.5918 12.9104V9.60772C13.5918 8.20464 14.7292 7.06721 16.1323 7.06721V7.06721C17.5354 7.06721 18.6728 8.20464 18.6728 9.60772V12.9104" stroke="black" stroke-width="2"/>
<path d="M9.73654 19.4638L11.1104 13.364C11.5214 11.5392 13.1421 10.2429 15.0126 10.2429H17.3788C19.2493 10.2429 20.87 11.5392 21.281 13.364L22.6548 19.4638C23.2181 21.9648 21.3163 24.3426 18.7526 24.3426H13.6388C11.0751 24.3426 9.17325 21.9648 9.73654 19.4638Z" stroke="black" stroke-width="2"/>
<path d="M31.1951 16.0976C31.1951 24.4357 24.4357 31.1951 16.0976 31.1951C7.75941 31.1951 1 24.4357 1 16.0976C1 7.75941 7.75941 1 16.0976 1C24.4357 1 31.1951 7.75941 31.1951 16.0976Z" stroke="black" stroke-width="2"/>
<circle cx="29.0543" cy="5.49673" r="5.49673" fill="#E2F6DF"/>
<path d="M30.2318 10.2082L27.4834 16.8828" stroke="black" stroke-width="2" stroke-linecap="round"/>
<path d="M30.624 10.2082L36.1208 14.9197" stroke="black" stroke-width="2" stroke-linecap="round"/>
</svg>
